<mxfile host="app.diagrams.net" agent="Mozilla/5.0 (Windows NT 10.0; Win64; x64) AppleWebKit/537.36 (KHTML, like Gecko) Chrome/133.0.0.0 Safari/537.36 Edg/133.0.0.0" version="26.0.16">
  <diagram name="Page-1" id="86SdJIa1dW6gmFZWiOET">
    <mxGraphModel dx="339" dy="476" grid="1" gridSize="10" guides="1" tooltips="1" connect="1" arrows="1" fold="1" page="1" pageScale="1" pageWidth="850" pageHeight="1100" math="0" shadow="0">
      <root>
        <mxCell id="0" />
        <mxCell id="1" parent="0" />
        <mxCell id="4zuAgSkbRcTAr_A5xsD8-3" value="Are there any other bidders?" style="rounded=0;whiteSpace=wrap;html=1;" vertex="1" parent="1">
          <mxGeometry x="300" y="290" width="170" height="60" as="geometry" />
        </mxCell>
        <mxCell id="4zuAgSkbRcTAr_A5xsD8-5" value="" style="endArrow=none;html=1;rounded=0;" edge="1" parent="1">
          <mxGeometry width="50" height="50" relative="1" as="geometry">
            <mxPoint x="470" y="320" as="sourcePoint" />
            <mxPoint x="620" y="320" as="targetPoint" />
          </mxGeometry>
        </mxCell>
        <mxCell id="4zuAgSkbRcTAr_A5xsD8-6" value="Yes" style="text;html=1;align=center;verticalAlign=middle;resizable=0;points=[];autosize=1;strokeColor=none;fillColor=none;" vertex="1" parent="1">
          <mxGeometry x="500" y="288" width="40" height="30" as="geometry" />
        </mxCell>
        <mxCell id="4zuAgSkbRcTAr_A5xsD8-7" value="No" style="text;html=1;align=center;verticalAlign=middle;resizable=0;points=[];autosize=1;strokeColor=none;fillColor=none;" vertex="1" parent="1">
          <mxGeometry x="220" y="288" width="40" height="30" as="geometry" />
        </mxCell>
        <mxCell id="4zuAgSkbRcTAr_A5xsD8-8" value="" style="endArrow=none;html=1;rounded=0;" edge="1" parent="1">
          <mxGeometry width="50" height="50" relative="1" as="geometry">
            <mxPoint x="150" y="319.76" as="sourcePoint" />
            <mxPoint x="300" y="319.76" as="targetPoint" />
          </mxGeometry>
        </mxCell>
        <mxCell id="4zuAgSkbRcTAr_A5xsD8-9" value="" style="endArrow=classic;html=1;rounded=0;" edge="1" parent="1">
          <mxGeometry width="50" height="50" relative="1" as="geometry">
            <mxPoint x="150" y="320" as="sourcePoint" />
            <mxPoint x="150" y="390" as="targetPoint" />
          </mxGeometry>
        </mxCell>
        <mxCell id="4zuAgSkbRcTAr_A5xsD8-19" style="edgeStyle=orthogonalEdgeStyle;rounded=0;orthogonalLoop=1;jettySize=auto;html=1;" edge="1" parent="1" source="4zuAgSkbRcTAr_A5xsD8-11">
          <mxGeometry relative="1" as="geometry">
            <mxPoint x="385" y="170" as="targetPoint" />
          </mxGeometry>
        </mxCell>
        <mxCell id="4zuAgSkbRcTAr_A5xsD8-11" value="What&#39;s your name?:&amp;nbsp;" style="rounded=0;whiteSpace=wrap;html=1;" vertex="1" parent="1">
          <mxGeometry x="325" y="80" width="120" height="60" as="geometry" />
        </mxCell>
        <mxCell id="4zuAgSkbRcTAr_A5xsD8-20" style="edgeStyle=orthogonalEdgeStyle;rounded=0;orthogonalLoop=1;jettySize=auto;html=1;" edge="1" parent="1" source="4zuAgSkbRcTAr_A5xsD8-12">
          <mxGeometry relative="1" as="geometry">
            <mxPoint x="385" y="280" as="targetPoint" />
          </mxGeometry>
        </mxCell>
        <mxCell id="4zuAgSkbRcTAr_A5xsD8-12" value="What&#39;s your bid?: $" style="rounded=0;whiteSpace=wrap;html=1;" vertex="1" parent="1">
          <mxGeometry x="325" y="180" width="120" height="60" as="geometry" />
        </mxCell>
        <mxCell id="4zuAgSkbRcTAr_A5xsD8-14" value="the winner is {name} with a bid of ${max_bid}" style="rounded=0;whiteSpace=wrap;html=1;" vertex="1" parent="1">
          <mxGeometry x="90" y="400" width="170" height="60" as="geometry" />
        </mxCell>
        <mxCell id="4zuAgSkbRcTAr_A5xsD8-16" value="" style="endArrow=none;html=1;rounded=0;" edge="1" parent="1">
          <mxGeometry width="50" height="50" relative="1" as="geometry">
            <mxPoint x="620" y="320" as="sourcePoint" />
            <mxPoint x="620" y="10" as="targetPoint" />
          </mxGeometry>
        </mxCell>
        <mxCell id="4zuAgSkbRcTAr_A5xsD8-17" value="" style="endArrow=none;html=1;rounded=0;" edge="1" parent="1">
          <mxGeometry width="50" height="50" relative="1" as="geometry">
            <mxPoint x="620" y="10" as="sourcePoint" />
            <mxPoint x="390" y="10" as="targetPoint" />
          </mxGeometry>
        </mxCell>
        <mxCell id="4zuAgSkbRcTAr_A5xsD8-18" value="" style="endArrow=classic;html=1;rounded=0;" edge="1" parent="1">
          <mxGeometry width="50" height="50" relative="1" as="geometry">
            <mxPoint x="390" y="10" as="sourcePoint" />
            <mxPoint x="390" y="70" as="targetPoint" />
          </mxGeometry>
        </mxCell>
      </root>
    </mxGraphModel>
  </diagram>
</mxfile>
